# xmcd
# 
# Track frame offsets:
#     150
#     8960
#     19157
#     28957
#     38100
#     49565
#     59780
#     70737
#     81812
#     90395
#     102215
#     112835
#     121890
#     134122
#     144760
#     154060
#     165110
#     175435
#     187155
#     199155
#     211220
#     221825
#     232677
#     241797
#     251860
#     262167
#     272850
#     284192
#     293975
#     305310
#     318487
# 
# Disc length: 4377
# 
# Revision: 2
# Processed by: cddbd v1.5.2PL0 Copyright (c) Steve Scherf et al.
# Submitted via: fre:ac v1.0.17
# 
DISCID=cd11171f
DTITLE=Homer and Jethro - Homer and Jethro Assault The Rock 'n Roll Era
DYEAR=2007
DGENRE=Country
TTITLE0=Houn' Dawg (Take 2)
TTITLE1=Hart Brake Motel
TTITLE2=Two Tone Shoes
TTITLE3=Rock Boogie
TTITLE4=Hernando's Hideaway
TTITLE5=Middle-Aged Teenager
TTITLE6=At The Flop
TTITLE7=Screen Door
TTITLE8=Itsy Bitsy Teenie Weenie Yellow Polkadot Bikini
TTITLE9=The Battel Of Kookamonga
TTITLE10=My Special Angel
TTITLE11=Houn' Dawg (Take 1)
TTITLE12=I'm Movin' On No. 2
TTITLE13=Don't Let The Stars Get In Your Eyeballs
TTITLE14=Yaller Rose Of Texas, You-All
TTITLE15=Keep Them Cold Icy Fingers Off Of Me
TTITLE16=The West Virginny Hills
TTITLE17=Pore Ol' Koo-Liger
TTITLE18=Hey Good Lookin' No. 2
TTITLE19=Jam-Bowl-Liar
TTITLE20=Settin' The Woods On Fire No. 2
TTITLE21=Oh Lonesome Me
TTITLE22=I Guess Things Happen That Way
TTITLE23=Sixteen Tons
TTITLE24=Little Arrows
TTITLE25=She Loves You
TTITLE26=I Want To Hold Your Hand
TTITLE27=No Hair Sam
TTITLE28=Winchester Cathedral
TTITLE29=El Paso - Numero Dos
TTITLE30=The Ballad Of Davy Crew-Cut
EXTD=
EXTT0=
EXTT1=
EXTT2=
EXTT3=
EXTT4=
EXTT5=
EXTT6=
EXTT7=
EXTT8=
EXTT9=
EXTT10=
EXTT11=
EXTT12=
EXTT13=
EXTT14=
EXTT15=
EXTT16=
EXTT17=
EXTT18=
EXTT19=
EXTT20=
EXTT21=
EXTT22=
EXTT23=
EXTT24=
EXTT25=
EXTT26=
EXTT27=
EXTT28=
EXTT29=
EXTT30=
PLAYORDER=
